<svg width="20" height="20" viewBox="0 0 20 20" fill="none" xmlns="http://www.w3.org/2000/svg">
<g id="Group 2630">
<g id="Group">
<path id="Vector" d="M14.69 17H5.31C4.05 17 3 15.936 3 14.662V9.552C3 8.908 3.28 8.278 3.77 7.844L8.46 3.588C9.37 2.804 10.63 2.804 11.54 3.588L16.23 7.844C16.72 8.264 17 8.908 17 9.552V14.662C16.93 16.006 15.95 17 14.69 17ZM10 4.442C9.79 4.442 9.58 4.512 9.37 4.652L4.68 8.908C4.47 9.048 4.4 9.328 4.4 9.622V14.732C4.4 15.222 4.82 15.656 5.31 15.656H14.62C15.11 15.656 15.53 15.236 15.53 14.732V9.622C15.53 9.342 15.39 9.132 15.25 8.908L10.56 4.652C10.42 4.512 10.21 4.442 10 4.442Z" fill="white"/>
</g>
</g>
</svg>
