<svg width="24" height="24" viewBox="0 0 24 24" fill="none" xmlns="http://www.w3.org/2000/svg">
<g id="Group 2437">
<g id="arrow-right">
<path id="arrow_right" d="M14.6399 12.0516C14.639 12.2827 14.5465 12.504 14.3828 12.6671L10.0113 17.0385C9.84389 17.1816 9.62856 17.2562 9.40846 17.2473C9.18836 17.2384 8.97975 17.1467 8.82442 16.9905C8.66909 16.8343 8.57852 16.6252 8.57084 16.405C8.56317 16.1849 8.63896 15.97 8.78304 15.8033L12.5305 12.0516L8.78304 8.29992C8.63944 8.13289 8.56426 7.91776 8.57255 7.69765C8.58084 7.47753 8.67199 7.26867 8.82775 7.11292C8.98351 6.95716 9.19236 6.86601 9.41248 6.85772C9.6326 6.84942 9.84772 6.92461 10.0148 7.0682L14.3862 11.4396C14.5478 11.6024 14.639 11.8222 14.6399 12.0516Z" fill="white"/>
</g>
</g>
</svg>
