<svg width="32" height="32" viewBox="0 0 32 32" fill="none" xmlns="http://www.w3.org/2000/svg">
<g id="Group 2356">
<g id="arrow-right">
<path id="arrow_right" d="M19.521 16.0695C19.5198 16.3776 19.3965 16.6727 19.1781 16.8901L13.3496 22.7186C13.1263 22.9095 12.8392 23.009 12.5457 22.9971C12.2523 22.9852 11.9741 22.8629 11.767 22.6547C11.5599 22.4464 11.4392 22.1676 11.4289 21.874C11.4187 21.5805 11.5198 21.294 11.7119 21.0718L16.7084 16.0695L11.7119 11.0672C11.5204 10.8445 11.4201 10.5577 11.4312 10.2642C11.4423 9.97069 11.5638 9.69222 11.7715 9.48454C11.9792 9.27687 12.2576 9.15533 12.5511 9.14427C12.8446 9.13322 13.1314 9.23346 13.3541 9.42492L19.1827 15.2535C19.3983 15.4705 19.5198 15.7636 19.521 16.0695Z" fill="#275682"/>
</g>
</g>
</svg>
