<svg width="32" height="32" viewBox="0 0 32 32" fill="none" xmlns="http://www.w3.org/2000/svg">
<g id="Group 2356">
<g id="arrow-right">
<path id="arrow_right" d="M19.521 16.0714C19.5198 16.3796 19.3965 16.6746 19.1781 16.892L13.3496 22.7206C13.1263 22.9115 12.8392 23.0109 12.5457 22.999C12.2523 22.9872 11.9741 22.8649 11.767 22.6566C11.5599 22.4483 11.4392 22.1695 11.4289 21.876C11.4187 21.5825 11.5198 21.2959 11.7119 21.0737L16.7084 16.0714L11.7119 11.0692C11.5204 10.8465 11.4201 10.5596 11.4312 10.2661C11.4423 9.97264 11.5638 9.69417 11.7715 9.48649C11.9792 9.27882 12.2576 9.15728 12.5511 9.14622C12.8446 9.13517 13.1314 9.23541 13.3541 9.42688L19.1827 15.2554C19.3983 15.4725 19.5198 15.7656 19.521 16.0714V16.0714Z" fill="#F87700"/>
</g>
</g>
</svg>
