<svg width="24" height="24" viewBox="0 0 24 24" fill="none" xmlns="http://www.w3.org/2000/svg">
<g id="Group 2627">
<g id="Group">
<path id="Vector" d="M10.2445 17.9813C11.8534 17.9813 13.4162 17.4445 14.6855 16.4559L19.4741 21.2445C19.8318 21.59 20.4018 21.5801 20.7473 21.2224C21.0843 20.8734 21.0843 20.3202 20.7473 19.9713L15.9587 15.1827C18.4119 12.0248 17.8406 7.47612 14.6827 5.02294C11.5248 2.56975 6.97618 3.14102 4.523 6.29892C2.06982 9.45683 2.64108 14.0055 5.79899 16.4587C7.07033 17.4463 8.63458 17.9821 10.2445 17.9813ZM6.39692 6.89409C8.52191 4.76907 11.9672 4.76903 14.0922 6.89402C16.2172 9.019 16.2173 12.4643 14.0923 14.5893C11.9673 16.7143 8.52202 16.7144 6.397 14.5894C6.39696 14.5893 6.39696 14.5893 6.39692 14.5893C4.27194 12.4798 4.25942 9.04708 6.36892 6.9221C6.37824 6.91274 6.38756 6.90342 6.39692 6.89409Z" fill="#484848"/>
</g>
</g>
</svg>
