<svg width="24" height="25" viewBox="0 0 24 25" fill="none" xmlns="http://www.w3.org/2000/svg">
<g id="Group 2631">
<g id="Group">
<path id="Vector" d="M16.0725 8.08118L7.9583 8.05859C7.47587 8.05859 7.08218 8.45067 7.08057 8.9331C7.08057 9.16706 7.17092 9.3881 7.3355 9.55429C7.50007 9.72048 7.72112 9.81245 7.95507 9.81245L16.0693 9.83504C16.3016 9.83504 16.5227 9.74468 16.6872 9.58011C16.8534 9.41553 16.9454 9.19448 16.9454 8.96053C16.9486 8.4781 16.5565 8.0828 16.0725 8.08118Z" fill="#484848"/>
<path id="Vector_2" d="M19.748 5.30047C18.9348 4.48243 17.8505 4.03066 16.6969 4.02743L7.34512 4C6.19632 4 5.11529 4.44693 4.30048 5.2569C3.48245 6.0701 3.02906 7.15274 3.02583 8.308L3.00002 17.6468C2.99679 18.8005 3.44372 19.8863 4.25692 20.7044C5.07011 21.5224 6.15437 21.9758 7.30801 21.9774L15.369 22C16.471 22 17.5068 21.5724 18.2894 20.7963L19.7609 19.3329C20.545 18.552 20.979 17.5145 20.9823 16.4077L21.0049 8.35801C21.0081 7.20437 20.5612 6.1185 19.748 5.30047ZM19.251 8.35317L19.23 15.5251L17.4294 15.5203C16.6485 15.5203 15.9127 15.8236 15.3577 16.3754C14.801 16.9304 14.4928 17.6662 14.4896 18.4503L14.4848 20.2429L7.31285 20.2219C6.62712 20.2203 5.98496 19.9509 5.50091 19.4652C5.01687 18.9796 4.75226 18.3342 4.75387 17.6484L4.77969 8.30961C4.7813 7.62388 5.05075 6.98171 5.53641 6.49767C6.02046 6.01685 6.66585 5.75063 7.35319 5.75063L16.692 5.77644C17.3778 5.77806 18.0199 6.04751 18.504 6.53317C18.988 7.02366 19.2526 7.66744 19.251 8.35317ZM16.2386 20.0832L16.2435 18.4568C16.2451 17.8049 16.7791 17.2741 17.4326 17.2741L19.059 17.279C18.938 17.5807 18.7541 17.8582 18.5233 18.0873L17.0518 19.5507C16.8195 19.7831 16.5404 19.9654 16.2386 20.0832Z" fill="#484848"/>
<path id="Vector_3" d="M11.9935 16.1832L7.9356 16.1719C7.45317 16.1719 7.05948 16.564 7.05787 17.0464C7.05625 17.5304 7.44833 17.9241 7.93237 17.9257L11.9903 17.937C12.4727 17.937 12.8664 17.5449 12.868 17.0625C12.868 16.8286 12.7777 16.6075 12.6131 16.4413C12.4469 16.2751 12.2275 16.1832 11.9935 16.1832Z" fill="#484848"/>
<path id="Vector_4" d="M16.0612 12.1359L7.94695 12.1133C7.46452 12.1133 7.07083 12.5054 7.06922 12.9878C7.06761 13.4718 7.45968 13.8655 7.94373 13.8671L16.0579 13.8897C16.5404 13.8897 16.934 13.4976 16.934 13.0152C16.934 12.7813 16.8437 12.5602 16.6791 12.394C16.5145 12.2278 16.2951 12.1359 16.0612 12.1359Z" fill="#484848"/>
</g>
</g>
</svg>
