<svg width="24" height="24" viewBox="0 0 24 24" fill="none" xmlns="http://www.w3.org/2000/svg">
<g id="Group 2630">
<g id="Group">
<path id="Vector" d="M16.4267 3.5H7.57357C5.05079 3.5 3.00012 5.55067 3.00012 8.07345V16.9266C3.00012 19.4479 5.05079 21.5 7.57357 21.5H16.4267C18.948 21.5 21.0001 19.4493 21.0001 16.9266V8.07345C20.9987 5.55067 18.948 3.5 16.4267 3.5ZM4.7687 8.07345C4.7687 6.52704 6.02716 5.26857 7.57357 5.26857H16.4267C17.9731 5.26857 19.2315 6.52704 19.2315 8.07345V16.9266C19.2315 18.473 17.9731 19.7314 16.4267 19.7314H7.57357C6.02716 19.7314 4.7687 18.473 4.7687 16.9266V8.07345Z" fill="#484848"/>
<path id="Vector_2" d="M8.31019 17.0733C8.79691 17.0733 9.19448 16.6772 9.19448 16.189V11.7632C9.19448 11.2765 8.79838 10.8789 8.31019 10.8789C7.82347 10.8789 7.4259 11.275 7.4259 11.7632V16.1905C7.42736 16.6772 7.82347 17.0733 8.31019 17.0733Z" fill="#484848"/>
<path id="Vector_3" d="M11.9995 17.0727C12.4862 17.0727 12.8837 16.6766 12.8837 16.1884V8.81007C12.8837 8.32335 12.4876 7.92578 11.9995 7.92578C11.5113 7.92578 11.1152 8.32188 11.1152 8.81007V16.1884C11.1152 16.6751 11.5127 17.0727 11.9995 17.0727Z" fill="#484848"/>
<path id="Vector_4" d="M15.6887 17.0713C16.1755 17.0713 16.573 16.7731 16.573 16.4077V13.3003C16.573 12.9334 16.1769 12.6367 15.6887 12.6367C15.202 12.6367 14.8044 12.9349 14.8044 13.3003V16.4077C14.8044 16.7731 15.202 17.0713 15.6887 17.0713Z" fill="#484848"/>
</g>
</g>
</svg>
